<?xml version="1.0" encoding="utf-8"?>
<!-- Generator: Adobe Illustrator 24.0.1, SVG Export Plug-In . SVG Version: 6.00 Build 0)  -->
<svg version="1.1" id="Layer_1" xmlns="http://www.w3.org/2000/svg" xmlns:xlink="http://www.w3.org/1999/xlink" x="0px" y="0px"
	 viewBox="0 0 60 60" style="enable-background:new 0 0 60 60;" xml:space="preserve">
<style type="text/css">
	.st0{fill:#C0E2CA;}
	.st1{fill:#619744;}
	.st2{fill:#DCAF27;}
	.st3{fill:#8B0304;}
	.st4{fill:#2E3192;}
	.st5{fill:#5B8395;}
	.st6{fill:#82912A;}
	.st7{fill:#8781BD;}
	.st8{fill:#FFF78F;}
	.st9{fill:#A70E13;}
	.st10{fill:#FFFFFF;}
	.st11{fill:#568369;}
</style>
<g>
	<path class="st0" d="M246.38,124.37c-0.81-50-36.13-93.87-84.49-104.41C106.97,7.98,50.79,42.3,37.57,95.89
		c-15.08,61.12,28.2,123.08,91.92,131.43c11.57,1.52,23.08,0.68,34.51-1.8c5.08-1.1,10.34-1.82,15.53-1.88
		c11.98-0.15,20.41,5.53,25.36,16.18c4.05,8.72,8.08,17.45,12.13,26.16c0.51,1.1,1.03,2.22,1.68,3.24c2.32,3.62,5.68,4.55,9.16,2.63
		c3.21-1.77,4.3-5.65,1.97-9.13c-4.07-6.09-8.56-11.91-12.8-17.9c-4.71-6.65-9.4-13.32-13.96-20.06c-1.23-1.82-3.07-4.19-0.12-5.94
		c2.86-1.7,4.05,0.81,5.42,2.71c8.08,11.26,16.22,22.47,24.32,33.72c1.03,1.43,2.06,2.88,2.92,4.41c4.07,7.17,2.23,13.84-4.79,17.57
		c-7.53,4-13.85,2.16-17.81-5.6c-4.24-8.33-8.12-16.83-12.16-25.26c-0.7-1.47-1.37-2.95-2.15-4.38
		c-5.93-10.88-13.57-13.95-26.05-11.99c-12.75,2.01-25.66,4.22-38.51,4.32C77,234.77,27.51,191.07,21.17,135.38
		C15.5,85.61,40.04,39.03,84.54,16.8c66.03-33,146.92-1.48,167.41,68.15c12.76,43.35,1.68,81.93-29.85,114.71
		c-9.93,10.32-27.55,8.48-35.68-3.33c-5.28-7.67-7.78-16.17-8.04-25.53c-0.21-7.64-0.8-15.41-2.54-22.83
		c-2.74-11.65-10.66-19.63-21.75-24.39c-9.82-4.21-18.7,0.89-19.71,11.33c-1.39,14.37,3.42,26.33,15.36,35.13
		c4.29,3.16,8.83,6,13.35,8.86c11.38,7.21,19.21,17.24,24.54,29.28c0.83,1.87,1.89,3.81-0.75,5.22c-2.79,1.48-3.95-0.73-4.72-2.42
		c-6.78-14.9-18.32-24.85-32.43-33.3c-15.77-9.45-23.76-23.99-21.8-42.82c1.61-15.53,14.6-23.2,29.13-16.76
		c16.78,7.43,25.25,20.68,26.94,38.33c0.52,5.37,0.62,10.78,0.84,16.17c0.26,6.45,1.78,12.54,5.28,18.08
		c7.27,11.52,20.3,12.72,29.64,2.65c12.76-13.75,20.54-29.95,24.02-48.09C245.09,138.35,245.54,131.32,246.38,124.37z"/>
	<path class="st1" d="M172.01,40.16c6.82-4.99,12.76-5.42,17.66-1.56c5.15,4.06,5.91,9.52,2.39,18c0.85,0.79,1.81,1.58,2.64,2.48
		c3.84,4.16,4.35,10.56,1.28,15.27c-2.94,4.5-9.16,7.33-14.04,4.99c-7.84-3.76-13.55,0.16-19.55,3.87c-1.45,0.89-2.7,2.09-4.11,3.2
		c-0.94-0.61-1.76-1.06-2.49-1.63c-6.65-5.15-6.42-5.07-3.69-12.77c2.07-5.84,3.98-11.64-0.63-17.72
		c-3.4-4.49-1.74-11.23,2.41-14.99c4.18-3.77,10.49-4.28,15.31-1.2C170.13,38.71,170.97,39.4,172.01,40.16z"/>
	<path class="st2" d="M91.89,113.77c2.18-1.72,4.29-3.56,6.59-5.11c0.92-0.62,2.27-0.6,3.42-0.88c0.16,1.05,0.32,2.1,0.27,1.8
		c2.6,0.53,5.06,0.64,7.1,1.62c1.05,0.51,1.35,2.57,1.87,3.67c1.28,0.82,3.29,1.37,3.78,2.54c2.94,6.94,5.52,14.03,8.39,21.49
		c-8.99,0.1-21.35-6.16-21.02-8.86c-2.67-1.72-4.95-3.18-7.59-4.88c1.86-1.94,2.99-3.12,4.12-4.3c-0.1-0.14-0.21-0.27-0.31-0.41
		c-1.32,0.67-2.63,1.35-4.76,2.44c-0.65-3.32-1.22-6.26-1.8-9.21C91.96,113.68,91.89,113.77,91.89,113.77z"/>
	<path class="st3" d="M218.02,82.17c0.94,0.66,1.94,1.8,3.17,2.15c6.58,1.87,10.46,6.43,10.23,12.35c-0.21,5.4-4.5,9.64-10.77,10.64
		c-6.38,1.02-12.82-2.16-14.93-7.36c-2.04-5.04,1.23-10.98,7.35-13.98C215.01,85.04,216.56,83.32,218.02,82.17z"/>
	<path class="st4" d="M107.16,173.82c3.79,2.26,7.76,3.08,10.17,6.51c2.09,2.99,3.4,9.04,3.19,13.52c-0.14,2.92-3.63,5.43-5.61,8.17
		c-5.91,8.19-11.31,1.95-16.63-1.7c-4.4-3.02-4.95-14.46-0.73-19.53C100.24,177.57,103.82,176.16,107.16,173.82z"/>
	<path class="st5" d="M132.22,61.22c4.05,3.06,8.97,5.27,11.91,9.42c3.46,4.86,0.12,11.18-5.09,13.52
		c-5.13,2.31-8.72,3.81-14.67-0.37c-4.75-3.34-7.49-6.35-5.79-11.11c1.41-3.96,5.91-6.49,9.21-9.38c0.77-0.68,2.26-0.23,3.42-0.3
		C131.55,62.41,131.89,61.82,132.22,61.22z"/>
	<path class="st6" d="M95.15,113.5c-2.81-0.98-5.67-1.85-8.41-3.01c-1.05-0.44-1.81-1.54-2.7-2.33c0.23-0.35,0.46-0.7,0.69-1.05
		c1.4,0.18,2.81,0.36,4.69,0.6c-1.85-1.82-3.34-3.29-4.82-4.75c0.34-0.38,0.69-0.76,1.04-1.14c2.58,1.39,5.16,2.78,8.89,4.79
		c-1.68-3.57-2.88-6.15-4.1-8.75c2.26-0.69,2.26-0.69,5.7,4.68c-0.14-2.17-0.24-3.62-0.35-5.25c0.57-0.1,1.2-0.43,1.57-0.25
		c2.46,1.22,3.96,9.84,2.11,11.83c-1.45,1.57-2.91,3.13-4.37,4.7C95.09,113.57,95.15,113.5,95.15,113.5z"/>
	<path class="st7" d="M104.33,151.95c-19.02-16.52-37.63-10.27-56.58,1.19c5.4-19.25,12.23-24.06,28.75-20.55
		C87.68,134.96,97.69,139.91,104.33,151.95z"/>
	<path class="st8" d="M76.04,79.02c4.97-23.78,24.78-45.11,39.91-42.83c4.37,0.66,8.52,6.29,12.45,10.31
		c3.03,3.1,5.54,7.23,7.9,10.39C107.7,54.25,104.64,39.81,76.04,79.02z"/>
	<path class="st9" d="M92.08,79.02c1.86,4.64,8.31,6.86,3.57,11.87c-1.13,1.19-5.28,1.41-6.51,0.33
		C83.5,86.27,90.5,83.75,92.08,79.02z"/>
	<path class="st10" d="M118.08,103.47c-2.4,0.2-3.97,0.34-5.55,0.47c-0.2-0.31-0.39-0.62-0.59-0.93c1.44-1.03,2.88-2.06,4.32-3.09
		C116.78,100.93,117.29,101.93,118.08,103.47z"/>
	<path class="st10" d="M108.34,100.4c-0.21-1.55-0.42-3.09-0.74-5.46c1.7,0.49,2.81,0.81,3.92,1.13c-0.66,1.57-1.32,3.14-1.98,4.72
		C109.14,100.65,108.74,100.53,108.34,100.4z"/>
	<path class="st11" d="M277.93,274.25c-3.89-8.41-7.97-16.16-11.13-24.26c-11.21-28.66-22.11-57.43-33.14-86.16
		c-0.7-1.82-1.76-3.53-2.27-5.4c-1.26-4.58-4.12-7-10.07-6.99c-2.23,0-5.36-1.57-6.15-3.24c-6.67-14.07-12.89-28.33-19.24-42.54
		c0.58-0.25,1.17-0.51,1.75-0.76c0.87,1.61,1.78,3.2,2.59,4.84c3.16,6.44,6.24,12.9,9.46,19.32c0.57,1.14,1.38,2.41,2.54,3
		c1.73,0.88,3.86,1.22,5.82,1.79c0.72-1.77,2.36-3.78,1.99-5.26c-1.5-5.99-3.58-11.81-5.52-17.68c-1.02-3.07-2.19-6.09-2.07-9.57
		c1.99,5.49,3.92,11,5.99,16.45c0.98,2.58,1.87,5.27,3.48,7.51c1.01,1.41,3.72,3.23,4.87,2.81c1.88-0.69,4.16-3.02,4.42-4.71
		c0.6-3.89,0.49-7.9-0.09-11.71c-0.66-4.33-2.14-8.5-1.97-13.26c1.46,4.03,3.03,8.02,4.36,12.09c2.28,6.96,4.53,13.93,6.55,20.96
		c1.41,4.91,1.42,9.52-2.11,14.8c-1.97,2.94-1.3,7.89-0.01,11.28c9.08,23.89,18.65,47.59,28.02,71.37
		c4.83,12.27,9.59,24.57,14.35,36.87C281.32,268.37,282.38,270.97,277.93,274.25z"/>
	<path class="st11" d="M236.78,300c-1.28-2.35-2.67-4.65-3.82-7.05c-13.36-27.94-26.87-55.82-39.94-83.89
		c-6.81-14.61-19.94-24.28-34.86-32.78c-12.43-7.08-24.3-14.63-28.69-27.6c-4.19-12.38,3.32-25.5,17.77-31.01
		c12.06-4.6,24.8-2.41,31.11,6.04c8.31,11.12,12.39,23.76,8.55,38.09c-2.97,11.09-1.27,20.28,3.75,29.92
		c14.94,28.7,28.26,58.14,42.13,87.32c2.17,4.56,4.12,9.21,5.79,13.96c0.7,1.99,0.38,4.34,0.53,6.53
		C238.31,299.69,237.55,299.84,236.78,300z M181.13,137.56c-2.73-3.48-5.03-7.27-8.28-10.36c-5.38-5.12-14.06-6.26-21.37-3.46
		c-8.22,3.14-14.31,10.41-14.88,17.76c-0.9,11.56,15.42,27.73,29.22,29.05c5.72,0.54,9.68-0.99,12.19-6.14
		C182.45,155.26,183.66,146.48,181.13,137.56z"/>
	<path class="st11" d="M21.3,183.59c-0.12-3.63-0.92-7.39-0.24-10.88c3.91-20.24,8.08-40.44,12.32-60.63
		c3.18-15.11,6.7-30.15,9.8-45.28c0.53-2.58,0.21-5.53-0.64-8.13c-6.85-21-2.36-39.41,14.32-55.15c0.97-0.92,2.16-1.66,4.59-3.52
		c0.05,3.5,0.49,5.84,0.05,8.03c-3.01,14.96-6.43,29.85-9.29,44.84c-3.5,18.35-6.03,36.87-10,55.12
		c-5.1,23.49-11.18,46.8-16.93,70.17c-0.48,1.96-1.56,3.79-2.36,5.68C22.38,183.76,21.84,183.67,21.3,183.59z"/>
	<path class="st10" d="M185.35,139.8c2.3,8.68,1.22,17.03-2.75,25.59c-2.24,4.83-5.8,6.11-10.94,5.31
		c-12.42-1.93-27.12-18.22-26.34-29.26c0.5-7.02,5.96-13.7,13.34-16.32c6.57-2.33,14.37-0.82,19.22,4.35
		C180.81,132.58,182.89,136.33,185.35,139.8z M179.14,140.56c-1.02-1.47-2.63-4.33-4.8-6.82c-4.03-4.64-9.98-6.21-14.65-4.23
		c-5.99,2.53-9.57,8.38-8.61,14.44c1.75,11.06,11.13,16.64,20.76,21.85c2.66,1.44,4.97-0.12,6.22-2.86
		C181.3,155.85,181.79,148.88,179.14,140.56z"/>
	<path class="st11" d="M174.22,138.7c2.93,8.53,2.36,15.83-1.25,23.39c-1.4,2.93-3.97,4.69-6.93,3.34
		c-10.7-4.9-21.12-10.2-23.04-21.63c-1.05-6.27,2.94-12.56,9.61-15.54c5.21-2.32,11.81-1.02,16.29,3.6
		C171.31,134.33,173.1,137.23,174.22,138.7z"/>
</g>
</svg>
